<svg xmlns="http://www.w3.org/2000/svg" width="100" height="100" viewBox="0 0 100 100">
      <polygon id="seccioBase" class="cls-1-1" points="243.17 209.5 25.14 211.92 0 37.38 212.85 37.38 243.17 209.5"/>

      <g id="mesa">
          <polygon class="cls-1" points="215.47 920.98 223.34 412.13 537.74 412.13 545.17 920.98 562.5 920.98 577.35 412.13 704.5 412.13 713.69 920.98 731.37 920.98 739.68 412.13 760.02 412.13 760.02 372.74 0 372.74 0 412.13 19.63 412.13 28.65 920.98 46.86 920.98 55.52 412.13 188.86 412.13 198.4 920.98 215.47 920.98"/>
      </g>
      <g id="cabeza">
          <path class="cls-2" d="M384.4,181l32.94-15.8L406,134.62l-10.77-80.1L327.1,68.89c-2.54.32-8.87,1.49-11.49,6.59-1.26,2.43-1,4.84.2,12.72,1.48,9.63,2.22,14.45,3.17,18.66,2.1,9.37,3.16,14.06,5.15,19.78,2.15,6.19,5.18,14.69,11.7,23.73,3.86,5.35,7.17,10,13.33,13.33a31.06,31.06,0,0,0,15.63,3.78l12.1-2Q380.66,173.25,384.4,181Z"/>
          <path class="cls-3" d="M408.57,132c0,1-.35,9.78-7,14.76-6.06,4.52-14.81,4-21.26-1.6-2-2.22-7.23-7.85-12.5-13.59l-13.33-14.5-1-13.82c.15-6.59-4.11-11.65-8.71-12s-7.9,4.42-8.1,4.72a23.12,23.12,0,0,0-1.41,5,25.25,25.25,0,0,0,1.41,13.1l-4.1,6a74.8,74.8,0,0,1-5.57-21,75.56,75.56,0,0,1,.3-19.64,3.44,3.44,0,0,0-1.34-3.3,2.66,2.66,0,0,0-1.79-.38c-.78.29-5,1.56-8.52-.33-1.69-.91-2-2.24-2.63-3.07a51.69,51.69,0,0,1-2.58-12.08c-2.11-23.27,12.41-41.18,16.83-46.25L329,22A55.68,55.68,0,0,1,349.56,5,51.84,51.84,0,0,1,378.34.42l-1.84,10.7a44.77,44.77,0,0,1,28.18,14.43,46.64,46.64,0,0,1,8.59,14.2l-7.88-1.14A25.3,25.3,0,0,1,410.32,45a29.15,29.15,0,0,1,3,17.22Q410.95,97.11,408.57,132Z"/>
      </g>
      <g id="piernas">
          <path class="cls-4" d="M263.86,888.61l-18.68,1.77a2.5,2.5,0,0,1-2.48-2.56l-3.63-50.39a2.66,2.66,0,0,1,2.08-3l18.68-1.77a2.51,2.51,0,0,1,2.48,2.57l3.63,50.39A2.65,2.65,0,0,1,263.86,888.61Z"/>
          <path class="cls-5" d="M229.81,830.4l-3.89,0L232,851.88l44.44-3.26L274,827.85h-4.15l-4.1-187c2.16-15,27.64-35.18,57-37.12,17.14-1.14,22.94-.85,65.41-1.42,45.89-.57,126.23-1,126.23-1l-5.69-120.51s-81.47,2.51-132.35,5.86a182.56,182.56,0,0,0-43.67,8.73c-32.11,9.9-57.55,22.26-96.71,52.2-5.63,4.3-34,25.29-40.51,56.91A63.81,63.81,0,0,0,194.32,622C195.5,638.88,221.3,811.38,229.81,830.4Z"/>
          <path class="cls-6" d="M239.31,884.3h30.32L274.77,913a6.67,6.67,0,0,1,0,4.16,5.73,5.73,0,0,1-1.61,2.44l-67.62.55c-6.17.45-10.25-4.13-10.08-7.73.13-2.57,2.46-5.06,5.5-6.27a158.25,158.25,0,0,0,23-10.46C230.62,892,234.17,888.08,239.31,884.3Z"/>
          <path class="cls-4" d="M372.32,895.8,353.85,899a2.5,2.5,0,0,1-2.68-2.36l-7.6-49.95a2.65,2.65,0,0,1,1.84-3.15l18.48-3.25a2.52,2.52,0,0,1,2.68,2.37l7.59,49.94A2.64,2.64,0,0,1,372.32,895.8Z"/>
          <path class="cls-5" d="M373,820.79l6.58-.92,2,23.07-49.26,7.92-7.23-23.11,6.68-2a649.94,649.94,0,0,1-23.13-105c-4.5-32.61-5.54-67.73-5.56-100.62a1.84,1.84,0,0,1,1.7-2l62.06,0a1.82,1.82,0,0,1,1.69,1.9l4.29,197.58Z"/>
          <path class="cls-6" d="M347.31,884.3h29.5l5,28.71a6.91,6.91,0,0,1,0,4.16,5.66,5.66,0,0,1-1.57,2.44l-65.78.55c-6,.45-10-4.13-9.8-7.73.12-2.57,2.39-5.06,5.35-6.27a151.79,151.79,0,0,0,22.35-10.46C338.86,892,342.31,888.08,347.31,884.3Z"/>
      </g>
      <g id="parte_supeior" data-name="parte supeior">
          <path class="cls-7" d="M428.67,146.89c5.63,4.33,7.55,15.65,5.09,24-7.57,25.51-58.65,29.66-62.08,20-.57-1.63.66-3.89,3.14-8.33a75.73,75.73,0,0,1,24.38-26.56C410.72,148.49,421.62,141.46,428.67,146.89Z"/>
          <path class="cls-8" d="M509.41,483.82c-59.83,4.32-117.91,6.83-157.06,6.83-.46-5,6.07-13.9,6.25-15.74a25.25,25.25,0,0,0,0-6.27C351.92,406,333.92,254,344.88,215.49a58.29,58.29,0,0,1,4.5-10.09c3.27-6.56,11.87-11.65,32.74-21,27.23-12.23,48.84-17.69,62.15-16.81,6.76-.09,25.55,8.18,34.29,17.71a60.79,60.79,0,0,1,11.88,22.21C496.8,229.39,504.39,341.79,509.41,483.82Z"/>
      </g>
      <g id="silla">
          <path class="cls-7" d="M445.25,905.2l25.14.65A107.16,107.16,0,0,1,494.31,920,112.92,112.92,0,0,1,515,941.13a7.87,7.87,0,0,1-.81,8.27l-135.83.22a4.56,4.56,0,0,1-5.27-2.83,5.2,5.2,0,0,1,1-5.23,145.84,145.84,0,0,1,21.48-20.25,139.55,139.55,0,0,1,24.94-15.24Z"/>
          <polygon class="cls-7" points="431.87 904.76 431.26 660.42 460.05 663.25 459.85 904.76 431.87 904.76"/>
          <polygon class="cls-6" points="397 623.19 495.83 622.96 487.42 653.34 461.06 653.34 461.06 663.36 431.26 660.42 431.26 655.84 404.47 655.08 397 623.19"/>
          <path class="cls-9" d="M318.93,622.72s149,1.35,254-1.18c4-.09,12.93-.44,19.46-7,7.37-7.42,7.8-18.9,7.91-23.35.93-37.86.44-104,1.21-125.12,0,0,1.77-48.55,34.06-174.43a29,29,0,0,0,.43-13.45c-.22-1-2.2-9.45-9.13-14.75-7.11-5.43-15.59-4.34-18.87-4.36-39.33-.2-79.21.16-118.81.76-4.85.07-14.6.16-22.69,7.08S456.06,284.23,455,289.33c-12.51,59.07-24.56,127.76-24.93,129.9-2.89,16.46-4.64,24.07-6.23,39.4a377.29,377.29,0,0,0-1.68,54.79L302,516.69a24,24,0,0,0-11.86,9.8c-3.73,6.31-3.29,13-2.74,19.6,2,23.92,5.52,45.33,7.18,56.8a25.23,25.23,0,0,0,7.82,14.41A22,22,0,0,0,318.93,622.72Z"/>
          <rect class="cls-6" x="421.53" y="893.87" width="44.4" height="11.54"/>
      </g>
      <g id="laptop">
          <path class="cls-6" d="M273.41,358.53l41.78,8.8v7.75L78.31,374.4a9.13,9.13,0,0,1,1.56-7.32,7.66,7.66,0,0,1,5.34-2.83l0-.2-2.91-1-1.34-.57c-1.27-.52-2.44-1.69-3.68-3.85-1.42-2.46-2-6.62-2.39-7.6Q62.17,272.34,49.47,193.67a10.08,10.08,0,0,1,1.42-6,8.48,8.48,0,0,1,4.8-3.71H235.51a11.66,11.66,0,0,1,7,3.28,13.87,13.87,0,0,1,3.88,7.55c7.37,53.27,17.54,103.85,24.91,157.12Z"/>
      </g>
      <g id="brazos">
          <path class="cls-2" d="M325.55,356c-2.15.06-14.74-.21-25.23.28-21.84,1-27.27,20.86-24.16,29.23.41,1.09.55,1.43,18,1.43,0,0,30.35-1,37.34-2.92.87-.24,5.14-1.25,5.14-1.25.15-.44.46-13,.46-13,.08-2.13.05-11.83-3-13.12Z"/>
          <path class="cls-2" d="M131.19,353c10.49-.49,40.93,3,43.08,3a6.71,6.71,0,0,1,1.33.07,8.73,8.73,0,0,1,2,.55c3,1.29-3.52,22.86-3.78,24.57a4.8,4.8,0,0,1-.21.83,6.37,6.37,0,0,1-.92,1.67c-3.52,4.55-37.65,3-37.65,3-34.16-1.55-38.19.1-40.52-2.64C88.18,376.61,109.35,354.07,131.19,353Z"/>
          <path class="cls-8" d="M165.8,379c1.52-13.19,1.85-13.83,1.85-13.83l2.1-9.08c43.1-5.48,58-13.74,58-13.74s4.21-1.64,8.74-3.77c19.62-9.25,40.18-33.63,57.3-54.5,17.76-21.66,31.88-44.7,45.43-67.77,2-3.46,7.29-12.55,19-15.15,9.51-2.13,18.68,1.08,20.63,1.76,14.66,5.13,19.5,16.7,22.35,23.89,9.62,24.3-2.18,47.57-9.14,58.68,0,0-55.07,53.88-96.05,84-1.26.93-3,2.21-5.46,3.77-25.28,16.2-55.69,19.47-60.57,19.95a307,307,0,0,1-37.67,1.39c-12.3-.47-22-3.31-25.84-7.93C165.4,385.36,165.61,380.62,165.8,379Z"/>
          <polygon class="cls-8" points="408.86 345.69 338 354.77 331.68 355.57 334 385.51 343.76 385.81 401.36 372.43 413.22 366.34 413.22 352.43 408.86 345.69"/>
      </g>

      <g id="_codigoAereo" data-name="codigoAereo">
        <polygon id="seccion02" class="cls-2" points="151.44 191.32 94.83 192.01 92.98 183.43 149.11 183.21 151.44 191.32"/>
        <polygon id="seccion02-2" data-name="seccion02" class="cls-2-2" points="163.2 172.33 89.96 172.33 88.64 163.33 161.4 163.33 163.2 172.33"/>
        <polygon id="seccion02-3" data-name="seccion02" class="cls-3-3" points="124.05 182.38 92.39 182.38 90.54 173.38 122.12 173.38 124.05 182.38"/>
        <polygon id="seccion02-4" data-name="seccion02" class="cls-2-2" points="164.64 181.96 125.53 181.96 123.39 173.38 162.18 173.38 164.64 181.96"/>
        <polygon id="seccion05"   data-name="seccion02"  class="cls-2-2" points="257.06 78.16 183.82 78.16 182.5 69.15 255.26 69.15 257.06 78.16"/>
        <polygon id="seccion05-2" data-name="seccion05" class="cls-2-2" points="259.93 88.21 188.26 88.21 184.07 79.2 255.56 79.2 259.93 88.21"/>
        <polygon id="seccion05-3" data-name="seccion05" class="cls-3-3" points="246.33 68.11 173.1 68.11 171.78 59.1 244.53 59.1 246.33 68.11"/>
        <polygon id="seccion03"   data-name="seccion05" class="cls-2-2" points="96.19 88.21 59.58 88.21 58.91 79.2 95.29 79.2 96.19 88.21"/>
        <polygon id="seccion04"   data-name="seccion05" class="cls-2-2" points="110.81 44.08 54.28 44.08 53.26 35.07 109.42 35.07 110.81 44.08"/>
        <polygon id="seccion04-2" data-name="seccion04" class="cls-2-2" points="112.57 7.17 62.95 7.17 62.06 0 111.35 0 112.57 7.17"/>
        <polygon id="seccion04-3" data-name="seccion04" class="cls-2-2" points="109.06 16.33 64.21 16.33 63.4 9.79 107.96 9.79 109.06 16.33"/>
        <polygon id="seccion04-4" data-name="seccion04" class="cls-2-2" points="121.58 27.12 66.85 27.12 65.86 19.47 120.24 19.47 121.58 27.12"/>
        <polygon id="seccion01"   data-name="seccion04" class="cls-2-2" points="77.55 198.56 2.69 198.56 1.34 192.01 75.71 192.01 77.55 198.56"/>
        <polygon id="secicon01"   data-name="seccion04" class="cls-2-2" points="49.34 209.84 4.49 209.84 3.68 203.29 48.24 203.29 49.34 209.84"/>
        <polygon id="seccion01-2" data-name="seccion01" class="cls-2-2" points="96.19 209.84 51.34 209.84 50.53 203.29 95.09 203.29 96.19 209.84"/>
        <polygon id="seccion01-3" data-name="seccion01" class="cls-2-2" points="49.34 218.47 4.49 218.47 3.68 211.92 48.24 211.92 49.34 218.47"/>
        <polygon id="seccion02-5" data-name="seccion02" class="cls-2-2" points="116.55 161.73 71.7 161.73 70.89 155.19 115.45 155.19 116.55 161.73"/>
        <polygon id="seccion04-5" data-name="seccion04" class="cls-2-2" points="119.02 71.38 74.17 71.38 73.36 64.83 117.92 64.83 119.02 71.38"/>
        <polygon id="seccion05-4" data-name="seccion05" class="cls-2-2" points="239.82 118.74 194.97 118.74 194.16 112.2 238.72 112.2 239.82 118.74"/>
        <polygon id="seccion05-5" data-name="seccion05" class="cls-2-2" points="243.17 127.92 172.6 127.92 171.33 121.38 241.43 121.38 243.17 127.92"/>
        <polygon id="seccion05-6" data-name="seccion05" class="cls-2-2" points="235.27 137.1 172.47 137.1 171.33 130.56 233.73 130.56 235.27 137.1"/>
        <polygon id="seccion03-2" data-name="seccion03" class="cls-2-2" points="140.15 97.18 78.67 97.18 77.55 90.64 138.64 90.64 140.15 97.18"/>
        <polygon id="seccion03-3" data-name="seccion03" class="cls-2-2" points="108.85 107.03 80.77 107.03 80.26 100.48 108.16 100.48 108.85 107.03"/>
        <polygon id="seccion03-4" data-name="seccion03" class="cls-2-2" points="156.47 107.03 111.62 107.03 110.81 100.48 155.37 100.48 156.47 107.03"/>
        <polygon id="seccion03-5" data-name="seccion03" class="cls-2-2" points="150.48 117.18 83.25 117.18 82.04 110.64 148.83 110.64 150.48 117.18"/>
        <polygon id="seccion03-6" data-name="seccion03" class="cls-2-2" points="145.41 126.6 85.55 126.6 84.46 120.06 143.94 120.06 145.41 126.6"/>
        <polygon id="seccion03-7" data-name="seccion03" class="cls-2-2" points="145.41 145.34 87.28 145.34 86.23 138.8 143.98 138.8 145.41 145.34"/>
        <polygon id="seccion05-7" data-name="seccion05" class="cls-2-2" points="192.22 118.74 167.49 118.74 167.05 112.2 191.61 112.2 192.22 118.74"/>
        <polygon id="seccion03-8" data-name="seccion03" class="cls-2-2" points="101.16 135.97 84.76 135.97 84.46 129.43 100.76 129.43 101.16 135.97"/>
        <polygon id="seccion04-6" data-name="seccion04" class="cls-2-2" points="133.64 60.85 74.43 60.85 73.36 54.31 132.19 54.31 133.64 60.85"/>
        <polygon id="seccion04-7" data-name="seccion04" class="cls-2-2" points="117.93 52.47 92.57 52.47 92.11 45.92 117.3 45.92 117.93 52.47"/>
        <polygon id="seccion04-8" data-name="seccion04" class="cls-2-2" points="90.54 52.47 66.25 52.47 65.81 45.92 89.94 45.92 90.54 52.47"/>
        <polygon id="seccion06"   data-name="seccion06" class="cls-2-2" points="251.06 162.62 179.54 162.62 178.25 156.08 249.3 156.08 251.06 162.62"/>
        <polygon id="seccion06-2" data-name="seccion06" class="cls-2-2" points="278.16 172.33 215.35 172.33 214.22 165.79 276.61 165.79 278.16 172.33"/>
        <polygon id="seccion06-3" data-name="seccion06" class="cls-2-2" points="213.34 172.83 177.1 172.83 176.45 166.28 212.45 166.28 213.34 172.83"/>
        <polygon id="seccion06-4" data-name="seccion06" class="cls-2-2" points="261 183.21 179.72 183.21 178.25 176.67 259 176.67 261 183.21"/>
        <polygon id="seccion06-5" data-name="seccion06" class="cls-2-2" points="259.93 192.01 181.06 192.01 179.63 185.47 257.99 185.47 259.93 192.01"/>
        <polygon id="seccion06-6" data-name="seccion06" class="cls-3-3" points="249.11 211.64 184.58 211.64 183.42 205.1 247.52 205.1 249.11 211.64"/>
        <polygon id="seccion06-7" data-name="seccion06" class="cls-2-2" points="202.33 201.83 181.74 201.83 181.37 195.28 201.82 195.28 202.33 201.83"/>
      </g>
      <g id="codigoNotebook"  >
        <polygon id="seccion01-4" data-name="seccion01" class="cls-4-4" points="160.51 297.39 112.72 297.39 111.86 288.24 159.34 288.24 160.51 297.39"/>
        <polygon id="seccion01-5" data-name="seccion01" class="cls-4-4" points="186.28 297.2 165.99 297.4 164.72 288.56 185.14 288.24 186.28 297.2"/>  
        <polygon id="seccion01-6" data-name="seccion01" class="cls-3-3" points="128.73 243.68 88.48 243.68 87.75 236.88 127.74 236.88 128.73 243.68"/>  
        <polygon id="seccion01-7" data-name="seccion01" class="cls-2-2" points="195.06 280.16 109.78 280.16 108.24 271.01 192.96 271.01 195.06 280.16"/>
        <polygon id="seccion01-8" data-name="seccion01" class="cls-2-2" points="180.41 262.61 106.02 262.61 104.68 253.47 178.58 253.47 180.41 262.61"/>
      </g>

  </svg>